<svg xmlns="http://www.w3.org/2000/svg" viewBox="0 0 289.95 330.53"><defs><style>.cls-1{fill:#fff;}.cls-2{fill:#293549;}.cls-3{fill:#3bab5e;}.cls-4{fill:#f7f8f9;}.cls-5{fill:#424143;opacity:0.4;}.cls-5,.cls-6{isolation:isolate;}.cls-6{fill:#221f1f;opacity:0.1;}</style></defs><title>agencia</title><g id="Camada_2" data-name="Camada 2"><g id="Pagina_inicia_Movil" data-name="Pagina inicia Movil"><g id="La_agencia" data-name="La agencia"><path class="cls-1" d="M0,88.84A14,14,0,0,1,6.3,77.92L138.67,1.5a14,14,0,0,1,12.61,0L283.65,77.92A14,14,0,0,1,290,88.84V241.68a14,14,0,0,1-6.31,10.92L151.28,329a14,14,0,0,1-12.61,0L6.3,252.6A14,14,0,0,1,0,241.68Z"/><path class="cls-2" d="M69.15,55.42A8.92,8.92,0,0,1,78,46.53H211.91a8.92,8.92,0,0,1,8.89,8.89V275.11a8.92,8.92,0,0,1-8.89,8.89H78a8.92,8.92,0,0,1-8.89-8.89Z"/><rect class="cls-3" x="78.04" y="77.54" width="133.86" height="167.77"/><path class="cls-4" d="M150.49,61.1h-11a.45.45,0,1,1,0-.89h11a.44.44,0,1,1,0,.89Z"/><path class="cls-4" d="M154.09,63.47H135.86a.44.44,0,0,1,0-.89h18.23a.44.44,0,0,1,0,.89Z"/><path class="cls-4" d="M150.49,65.84h-11a.45.45,0,0,1,0-.89h11a.45.45,0,0,1,0,.89Z"/><path class="cls-4" d="M145,276a9.67,9.67,0,1,1,9.67-9.68A9.68,9.68,0,0,1,145,276Zm0-18.46a8.78,8.78,0,1,0,8.78,8.79A8.79,8.79,0,0,0,145,257.51Z"/><rect class="cls-4" x="89.15" y="86.5" width="111.64" height="31.61"/><rect class="cls-5" x="128.23" y="128.45" width="72.57" height="31.61"/><rect class="cls-5" x="89.15" y="128.16" width="31.9" height="31.89"/><rect class="cls-5" x="128.23" y="167.76" width="72.57" height="31.61"/><rect class="cls-5" x="89.15" y="167.47" width="31.9" height="31.9"/><rect class="cls-5" x="128.23" y="207.08" width="72.57" height="31.61"/><rect class="cls-5" x="89.15" y="206.79" width="31.9" height="31.9"/><path class="cls-6" d="M283.3,77.92,150.93,1.5A12.72,12.72,0,0,0,145,0V330.51a12.8,12.8,0,0,0,6-1.48L283.3,252.61a14,14,0,0,0,6.31-10.92V88.84A14,14,0,0,0,283.3,77.92Z"/></g></g></g></svg>